<svg width="328" height="344" viewBox="0 0 328 344" fill="none" xmlns="http://www.w3.org/2000/svg">
<ellipse cx="164" cy="308" rx="164" ry="36" fill="#01C5C0" fill-opacity="0.16"/>
<mask id="mask0" style="mask-type:alpha" maskUnits="userSpaceOnUse" x="78" y="0" width="173" height="304">
<path d="M78 0H250.051V304H78V0Z" fill="white"/>
</mask>
<g mask="url(#mask0)">
<path fill-rule="evenodd" clip-rule="evenodd" d="M248.707 220.946C249.003 230.053 248.372 236.481 247.333 238.655C244.001 245.625 226.375 247.556 226.375 247.556C222.157 264.066 216.483 284.318 213.303 295.522C212.66 297.785 212.121 299.679 211.714 301.099C211.223 302.817 209.653 304 207.867 304H184.744C182.965 304 181.393 302.827 180.902 301.117C180.324 299.104 179.786 296.854 179.309 294.648C178.04 288.767 177.208 283.186 177.208 283.186H151.485C151.042 287.782 150.25 291.769 149.417 294.991C148.717 297.704 147.989 299.872 147.415 301.401C146.829 302.964 145.335 304 143.668 304H120.414C118.681 304 117.146 302.885 116.608 301.238C116.136 299.784 115.604 298.03 115.03 296.059C110.211 279.473 102.496 247.408 102.496 247.408C101.961 247.518 101.381 247.566 100.763 247.561C93.4712 247.521 81.098 240.218 81.098 240.218C78.7007 232.677 79.9285 221.334 79.9285 221.334C79.9354 221.242 79.9423 221.147 79.9491 221.054C83.5692 173.028 98.769 143.046 100.936 138.984C86.7016 124.223 78 104.458 78 82.7376C78 37.0437 116.514 -0.000244141 164.025 -0.000244141C211.536 -0.000244141 250.051 37.0437 250.051 82.7376C250.051 104.226 241.533 123.8 227.568 138.509C242.871 167.744 248.051 200.86 248.707 220.946Z" fill="#00C5C0"/>
</g>
<path fill-rule="evenodd" clip-rule="evenodd" d="M115.031 296.059L149.418 294.991C148.718 297.704 147.99 299.871 147.416 301.401C146.831 302.964 145.336 304 143.669 304H120.415C118.682 304 117.147 302.885 116.609 301.238C116.137 299.784 115.605 298.03 115.031 296.059Z" fill="#070707"/>
<path fill-rule="evenodd" clip-rule="evenodd" d="M213.303 295.522C212.66 297.785 212.121 299.679 211.714 301.099C211.223 302.817 209.653 304 207.867 304H184.744C182.965 304 181.393 302.827 180.902 301.117C180.324 299.104 179.786 296.854 179.309 294.648L213.303 295.522Z" fill="#070707"/>
<path fill-rule="evenodd" clip-rule="evenodd" d="M102.499 247.408L100.766 247.561C93.4742 247.521 81.1011 240.217 81.1011 240.217C78.7037 232.677 79.9316 221.334 79.9316 221.334C79.9385 221.241 79.9453 221.147 79.9522 221.054L101.329 240.803L102.499 247.408Z" fill="#070707"/>
<path fill-rule="evenodd" clip-rule="evenodd" d="M247.337 238.655C244.005 245.625 226.379 247.555 226.379 247.555L227.607 240.978L248.711 220.946C249.008 230.053 248.376 236.481 247.337 238.655Z" fill="#070707"/>
<path fill-rule="evenodd" clip-rule="evenodd" d="M197.121 162.72C195.096 162.72 193.455 164.361 193.455 166.386C193.455 168.411 195.096 170.053 197.121 170.053C199.146 170.053 200.788 168.411 200.788 166.386C200.788 164.361 199.146 162.72 197.121 162.72ZM205.962 166.386C205.962 171.269 202.004 175.226 197.121 175.226C192.239 175.226 188.281 171.269 188.281 166.386C188.281 161.504 192.239 157.546 197.121 157.546C202.004 157.546 205.962 161.504 205.962 166.386Z" fill="#FFB000"/>
<path fill-rule="evenodd" clip-rule="evenodd" d="M195.096 153.862C195.096 155.222 193.994 156.324 192.634 156.324C191.274 156.324 190.172 155.222 190.172 153.862C190.172 152.502 191.274 151.4 192.634 151.4C193.994 151.4 195.096 152.502 195.096 153.862Z" fill="#FFB000"/>
<path fill-rule="evenodd" clip-rule="evenodd" d="M203.248 153.862C203.248 155.221 202.146 156.324 200.786 156.324C199.426 156.324 198.324 155.221 198.324 153.862C198.324 152.502 199.426 151.4 200.786 151.4C202.146 151.4 203.248 152.502 203.248 153.862Z" fill="#FFB000"/>
<path fill-rule="evenodd" clip-rule="evenodd" d="M232.515 92.0941C232.515 95.3331 231.71 98.3969 230.197 101.256C229.126 103.282 227.7 105.206 225.953 107.016C224.981 108.029 223.905 109.008 222.734 109.948C220.956 111.38 218.961 112.724 216.77 113.974C215.578 114.655 214.331 115.308 213.028 115.932C211.255 116.784 209.383 117.581 207.421 118.321C207.148 118.423 206.876 118.525 206.598 118.625C204.412 119.424 202.12 120.152 199.732 120.812C199.08 120.99 198.422 121.163 197.756 121.333C196.296 121.704 194.803 122.047 193.278 122.364C184.894 124.11 175.583 125.047 165.78 125.047C156.141 125.047 146.99 124.136 138.734 122.442C137.317 122.152 135.928 121.838 134.567 121.499C133.829 121.319 133.1 121.129 132.381 120.934C130.012 120.294 127.739 119.58 125.568 118.801C125.309 118.708 125.051 118.613 124.796 118.518C122.75 117.761 120.8 116.942 118.959 116.068C117.524 115.386 116.156 114.67 114.855 113.92C112.657 112.654 110.659 111.295 108.879 109.843C107.733 108.91 106.676 107.941 105.718 106.935C103.957 105.092 102.526 103.129 101.462 101.061C100.005 98.241 99.2305 95.2235 99.2305 92.0405C99.2305 88.9598 99.9567 85.9034 101.32 82.9419C102.275 80.8694 103.542 78.8432 105.093 76.8851C105.378 76.5247 105.675 76.1666 105.981 75.8111C106.379 75.3435 106.797 74.8783 107.229 74.4205C107.229 74.4205 107.231 74.4205 107.231 74.4181C107.612 74.0138 108.003 73.6144 108.411 73.2173C109.839 71.817 111.42 70.4653 113.135 69.1698C114.479 68.1542 115.91 67.1728 117.417 66.2303C119.406 64.9906 121.531 63.8168 123.78 62.7256C125.129 62.0681 126.518 61.4423 127.951 60.8455C127.951 60.8481 127.951 60.8481 127.954 60.8455C129.259 60.3025 130.601 59.7863 131.973 59.2967C132.511 59.1042 133.054 58.9168 133.602 58.7317C135.858 57.9768 138.193 57.2972 140.599 56.6957C140.883 56.6251 141.168 56.5545 141.455 56.4862C143.6 55.9724 145.801 55.5219 148.049 55.1419C148.93 54.9909 149.82 54.8522 150.718 54.7254C152.255 54.5063 153.811 54.3188 155.389 54.1654H155.391C156.95 54.0143 158.525 53.8975 160.12 53.8146C160.911 53.7732 161.703 53.7392 162.501 53.7148H162.504C163.589 53.6832 164.682 53.666 165.78 53.666C166.704 53.666 167.624 53.6782 168.538 53.7026C169.295 53.7196 170.048 53.7464 170.798 53.783C172.442 53.8585 174.068 53.9705 175.675 54.1214C177.2 54.2602 178.705 54.4331 180.194 54.6378H180.196C181.304 54.7864 182.396 54.9543 183.48 55.1371C185.726 55.5169 187.924 55.9651 190.069 56.479C190.356 56.5471 190.643 56.6177 190.928 56.6885C193.336 57.2875 195.671 57.967 197.93 58.7219C198.472 58.9022 199.005 59.0872 199.539 59.2747H199.541C200.928 59.7691 202.284 60.2903 203.604 60.8357H203.606C205.057 61.4373 206.461 62.0681 207.824 62.7306C210.073 63.8216 212.201 64.9906 214.194 66.2277C215.663 67.1434 217.06 68.0934 218.377 69.0796H218.38C219.965 70.2658 221.436 71.498 222.783 72.7717C223.067 73.0396 223.347 73.3099 223.62 73.5852C223.62 73.5876 223.622 73.5876 223.622 73.5876C224.488 74.4496 225.301 75.3337 226.047 76.23C226.047 76.23 226.047 76.2324 226.05 76.2324C226.209 76.4199 226.363 76.6074 226.513 76.795C228.016 78.6653 229.258 80.599 230.216 82.574C231.715 85.6695 232.515 88.8697 232.515 92.0941Z" fill="#010103"/>
<path fill-rule="evenodd" clip-rule="evenodd" d="M165.128 57.2682C165.128 59.3164 163.486 60.9748 161.459 60.9748C159.432 60.9748 157.789 59.3164 157.789 57.2682C157.789 55.6974 158.757 54.3555 160.124 53.8173C160.916 53.7759 161.707 53.7417 162.506 53.7175H162.508C164.023 54.173 165.128 55.5902 165.128 57.2682Z" fill="#05201F"/>
<path fill-rule="evenodd" clip-rule="evenodd" d="M165.164 64.9882C165.164 67.0342 163.521 68.6929 161.494 68.6929C159.467 68.6929 157.824 67.0342 157.824 64.9882C157.824 62.9422 159.467 61.2834 161.494 61.2834C163.521 61.2834 165.164 62.9422 165.164 64.9882Z" fill="#05201F"/>
<path fill-rule="evenodd" clip-rule="evenodd" d="M165.207 72.7084C165.207 74.7544 163.564 76.413 161.537 76.413C159.51 76.413 157.867 74.7544 157.867 72.7084C157.867 70.6622 159.51 69.0037 161.537 69.0037C163.564 69.0037 165.207 70.6622 165.207 72.7084Z" fill="#05201F"/>
<path fill-rule="evenodd" clip-rule="evenodd" d="M165.247 80.4302C165.247 82.4763 163.603 84.1349 161.576 84.1349C159.549 84.1349 157.906 82.4763 157.906 80.4302C157.906 78.3842 159.549 76.7256 161.576 76.7256C163.603 76.7256 165.247 78.3842 165.247 80.4302Z" fill="#05201F"/>
<path fill-rule="evenodd" clip-rule="evenodd" d="M165.289 88.1525C165.289 90.1985 163.646 91.8572 161.619 91.8572C159.592 91.8572 157.949 90.1985 157.949 88.1525C157.949 86.1065 159.592 84.4478 161.619 84.4478C163.646 84.4478 165.289 86.1065 165.289 88.1525Z" fill="#05201F"/>
<path fill-rule="evenodd" clip-rule="evenodd" d="M165.329 95.871C165.329 97.917 163.685 99.5756 161.658 99.5756C159.631 99.5756 157.988 97.917 157.988 95.871C157.988 93.8248 159.631 92.1663 161.658 92.1663C163.685 92.1663 165.329 93.8248 165.329 95.871Z" fill="#05201F"/>
<path fill-rule="evenodd" clip-rule="evenodd" d="M165.372 103.593C165.372 105.639 163.728 107.297 161.701 107.297C159.674 107.297 158.031 105.639 158.031 103.593C158.031 101.547 159.674 99.8882 161.701 99.8882C163.728 99.8882 165.372 101.547 165.372 103.593Z" fill="#05201F"/>
<path fill-rule="evenodd" clip-rule="evenodd" d="M165.411 111.315C165.411 113.361 163.767 115.02 161.74 115.02C159.713 115.02 158.07 113.361 158.07 111.315C158.07 109.269 159.713 107.61 161.74 107.61C163.767 107.61 165.411 109.269 165.411 111.315Z" fill="#05201F"/>
<path fill-rule="evenodd" clip-rule="evenodd" d="M165.45 119.034C165.45 121.08 163.807 122.739 161.779 122.739C159.752 122.739 158.109 121.08 158.109 119.034C158.109 116.988 159.752 115.329 161.779 115.329C163.807 115.329 165.45 116.988 165.45 119.034Z" fill="#05201F"/>
<path fill-rule="evenodd" clip-rule="evenodd" d="M157.054 57.2687C157.054 59.3169 155.411 60.9753 153.385 60.9753C151.358 60.9753 149.715 59.3169 149.715 57.2687C149.715 56.2849 150.094 55.391 150.718 54.7286C152.255 54.5095 153.812 54.3218 155.389 54.1685H155.392C156.393 54.8308 157.054 55.9706 157.054 57.2687Z" fill="#05201F"/>
<path fill-rule="evenodd" clip-rule="evenodd" d="M157.094 64.9879C157.094 67.0339 155.451 68.6927 153.424 68.6927C151.397 68.6927 149.754 67.0339 149.754 64.9879C149.754 62.9419 151.397 61.2832 153.424 61.2832C155.451 61.2832 157.094 62.9419 157.094 64.9879Z" fill="#05201F"/>
<path fill-rule="evenodd" clip-rule="evenodd" d="M157.137 72.7084C157.137 74.7544 155.494 76.413 153.467 76.413C151.44 76.413 149.797 74.7544 149.797 72.7084C149.797 70.6622 151.44 69.0037 153.467 69.0037C155.494 69.0037 157.137 70.6622 157.137 72.7084Z" fill="#05201F"/>
<path fill-rule="evenodd" clip-rule="evenodd" d="M157.176 80.4302C157.176 82.4763 155.533 84.1349 153.506 84.1349C151.479 84.1349 149.836 82.4763 149.836 80.4302C149.836 78.3842 151.479 76.7256 153.506 76.7256C155.533 76.7256 157.176 78.3842 157.176 80.4302Z" fill="#05201F"/>
<path fill-rule="evenodd" clip-rule="evenodd" d="M157.219 88.1525C157.219 90.1985 155.576 91.8572 153.549 91.8572C151.522 91.8572 149.879 90.1985 149.879 88.1525C149.879 86.1065 151.522 84.4478 153.549 84.4478C155.576 84.4478 157.219 86.1065 157.219 88.1525Z" fill="#05201F"/>
<path fill-rule="evenodd" clip-rule="evenodd" d="M157.258 95.8712C157.258 97.9172 155.615 99.5758 153.588 99.5758C151.561 99.5758 149.918 97.9172 149.918 95.8712C149.918 93.8251 151.561 92.1665 153.588 92.1665C155.615 92.1665 157.258 93.8251 157.258 95.8712Z" fill="#05201F"/>
<path fill-rule="evenodd" clip-rule="evenodd" d="M157.297 103.593C157.297 105.639 155.654 107.297 153.627 107.297C151.6 107.297 149.957 105.639 149.957 103.593C149.957 101.547 151.6 99.8882 153.627 99.8882C155.654 99.8882 157.297 101.547 157.297 103.593Z" fill="#05201F"/>
<path fill-rule="evenodd" clip-rule="evenodd" d="M157.348 111.315C157.348 113.361 155.705 115.02 153.678 115.02C151.651 115.02 150.008 113.361 150.008 111.315C150.008 109.269 151.651 107.61 153.678 107.61C155.705 107.61 157.348 109.269 157.348 111.315Z" fill="#05201F"/>
<path fill-rule="evenodd" clip-rule="evenodd" d="M157.383 119.034C157.383 121.08 155.74 122.739 153.713 122.739C151.686 122.739 150.043 121.08 150.043 119.034C150.043 116.988 151.686 115.329 153.713 115.329C155.74 115.329 157.383 116.988 157.383 119.034Z" fill="#05201F"/>
<path fill-rule="evenodd" clip-rule="evenodd" d="M148.71 57.2674C148.71 59.3156 147.068 60.974 145.041 60.974C143.014 60.974 141.371 59.3156 141.371 57.2674C141.371 56.9995 141.4 56.739 141.453 56.4881C143.598 55.9743 145.798 55.5237 148.047 55.1438C148.464 55.7454 148.71 56.4759 148.71 57.2674Z" fill="#05201F"/>
<path fill-rule="evenodd" clip-rule="evenodd" d="M148.751 64.9879C148.751 67.0339 147.107 68.6927 145.08 68.6927C143.053 68.6927 141.41 67.0339 141.41 64.9879C141.41 62.9419 143.053 61.2832 145.08 61.2832C147.107 61.2832 148.751 62.9419 148.751 64.9879Z" fill="#05201F"/>
<path fill-rule="evenodd" clip-rule="evenodd" d="M148.793 72.7084C148.793 74.7544 147.15 76.413 145.123 76.413C143.096 76.413 141.453 74.7544 141.453 72.7084C141.453 70.6622 143.096 69.0037 145.123 69.0037C147.15 69.0037 148.793 70.6622 148.793 72.7084Z" fill="#05201F"/>
<path fill-rule="evenodd" clip-rule="evenodd" d="M148.836 80.4302C148.836 82.4763 147.193 84.1349 145.166 84.1349C143.139 84.1349 141.496 82.4763 141.496 80.4302C141.496 78.3842 143.139 76.7256 145.166 76.7256C147.193 76.7256 148.836 78.3842 148.836 80.4302Z" fill="#05201F"/>
<path fill-rule="evenodd" clip-rule="evenodd" d="M148.879 88.1525C148.879 90.1985 147.236 91.8572 145.209 91.8572C143.182 91.8572 141.539 90.1985 141.539 88.1525C141.539 86.1065 143.182 84.4478 145.209 84.4478C147.236 84.4478 148.879 86.1065 148.879 88.1525Z" fill="#05201F"/>
<path fill-rule="evenodd" clip-rule="evenodd" d="M148.919 95.8712C148.919 97.9172 147.275 99.5758 145.248 99.5758C143.221 99.5758 141.578 97.9172 141.578 95.8712C141.578 93.8251 143.221 92.1665 145.248 92.1665C147.275 92.1665 148.919 93.8251 148.919 95.8712Z" fill="#05201F"/>
<path fill-rule="evenodd" clip-rule="evenodd" d="M148.961 103.593C148.961 105.639 147.318 107.297 145.291 107.297C143.264 107.297 141.621 105.639 141.621 103.593C141.621 101.547 143.264 99.8882 145.291 99.8882C147.318 99.8882 148.961 101.547 148.961 103.593Z" fill="#05201F"/>
<path fill-rule="evenodd" clip-rule="evenodd" d="M149 111.315C149 113.361 147.357 115.02 145.33 115.02C143.303 115.02 141.66 113.361 141.66 111.315C141.66 109.269 143.303 107.61 145.33 107.61C147.357 107.61 149 109.269 149 111.315Z" fill="#05201F"/>
<path fill-rule="evenodd" clip-rule="evenodd" d="M149.039 119.034C149.039 121.08 147.396 122.739 145.369 122.739C143.342 122.739 141.699 121.08 141.699 119.034C141.699 116.988 143.342 115.329 145.369 115.329C147.396 115.329 149.039 116.988 149.039 119.034Z" fill="#05201F"/>
<path fill-rule="evenodd" clip-rule="evenodd" d="M140.642 57.2671C140.642 59.3153 138.999 60.9737 136.972 60.9737C135.462 60.9737 134.161 60.0506 133.602 58.7333C135.857 57.9782 138.193 57.2988 140.598 56.6973C140.627 56.8846 140.642 57.0747 140.642 57.2671Z" fill="#05201F"/>
<path fill-rule="evenodd" clip-rule="evenodd" d="M140.684 64.9879C140.684 67.0339 139.041 68.6927 137.014 68.6927C134.987 68.6927 133.344 67.0339 133.344 64.9879C133.344 62.9419 134.987 61.2832 137.014 61.2832C139.041 61.2832 140.684 62.9419 140.684 64.9879Z" fill="#05201F"/>
<path fill-rule="evenodd" clip-rule="evenodd" d="M140.727 72.7084C140.727 74.7544 139.084 76.413 137.057 76.413C135.03 76.413 133.387 74.7544 133.387 72.7084C133.387 70.6622 135.03 69.0037 137.057 69.0037C139.084 69.0037 140.727 70.6622 140.727 72.7084Z" fill="#05201F"/>
<path fill-rule="evenodd" clip-rule="evenodd" d="M140.77 80.4302C140.77 82.4763 139.127 84.1349 137.1 84.1349C135.073 84.1349 133.43 82.4763 133.43 80.4302C133.43 78.3842 135.073 76.7256 137.1 76.7256C139.127 76.7256 140.77 78.3842 140.77 80.4302Z" fill="#05201F"/>
<path fill-rule="evenodd" clip-rule="evenodd" d="M140.813 88.1525C140.813 90.1985 139.17 91.8572 137.143 91.8572C135.116 91.8572 133.473 90.1985 133.473 88.1525C133.473 86.1065 135.116 84.4478 137.143 84.4478C139.17 84.4478 140.813 86.1065 140.813 88.1525Z" fill="#05201F"/>
<path fill-rule="evenodd" clip-rule="evenodd" d="M140.848 95.8712C140.848 97.9172 139.205 99.5758 137.178 99.5758C135.151 99.5758 133.508 97.9172 133.508 95.8712C133.508 93.8251 135.151 92.1665 137.178 92.1665C139.205 92.1665 140.848 93.8251 140.848 95.8712Z" fill="#05201F"/>
<path fill-rule="evenodd" clip-rule="evenodd" d="M140.891 103.593C140.891 105.639 139.248 107.297 137.221 107.297C135.194 107.297 133.551 105.639 133.551 103.593C133.551 101.547 135.194 99.8882 137.221 99.8882C139.248 99.8882 140.891 101.547 140.891 103.593Z" fill="#05201F"/>
<path fill-rule="evenodd" clip-rule="evenodd" d="M140.93 111.315C140.93 113.361 139.287 115.02 137.26 115.02C135.233 115.02 133.59 113.361 133.59 111.315C133.59 109.269 135.233 107.61 137.26 107.61C139.287 107.61 140.93 109.269 140.93 111.315Z" fill="#05201F"/>
<path fill-rule="evenodd" clip-rule="evenodd" d="M140.968 119.035C140.968 120.567 140.047 121.882 138.732 122.444C137.315 122.155 135.926 121.84 134.565 121.502C133.981 120.849 133.629 119.982 133.629 119.035C133.629 116.989 135.272 115.331 137.299 115.331C139.325 115.331 140.968 116.989 140.968 119.035Z" fill="#05201F"/>
<path fill-rule="evenodd" clip-rule="evenodd" d="M131.973 59.2981C131.316 60.3087 130.187 60.9737 128.901 60.9737C128.573 60.9737 128.255 60.9297 127.953 60.8469C129.258 60.3039 130.6 59.7877 131.973 59.2981Z" fill="#05201F"/>
<path fill-rule="evenodd" clip-rule="evenodd" d="M132.614 64.9879C132.614 67.0339 130.971 68.6927 128.943 68.6927C126.917 68.6927 125.273 67.0339 125.273 64.9879C125.273 62.9419 126.917 61.2832 128.943 61.2832C130.971 61.2832 132.614 62.9419 132.614 64.9879Z" fill="#05201F"/>
<path fill-rule="evenodd" clip-rule="evenodd" d="M132.657 72.7084C132.657 74.7544 131.014 76.413 128.986 76.413C126.96 76.413 125.316 74.7544 125.316 72.7084C125.316 70.6622 126.96 69.0037 128.986 69.0037C131.014 69.0037 132.657 70.6622 132.657 72.7084Z" fill="#05201F"/>
<path fill-rule="evenodd" clip-rule="evenodd" d="M132.696 80.4302C132.696 82.4763 131.053 84.1349 129.026 84.1349C126.999 84.1349 125.355 82.4763 125.355 80.4302C125.355 78.3842 126.999 76.7256 129.026 76.7256C131.053 76.7256 132.696 78.3842 132.696 80.4302Z" fill="#05201F"/>
<path fill-rule="evenodd" clip-rule="evenodd" d="M132.739 88.1525C132.739 90.1985 131.096 91.8572 129.069 91.8572C127.042 91.8572 125.398 90.1985 125.398 88.1525C125.398 86.1065 127.042 84.4478 129.069 84.4478C131.096 84.4478 132.739 86.1065 132.739 88.1525Z" fill="#05201F"/>
<path fill-rule="evenodd" clip-rule="evenodd" d="M132.782 95.871C132.782 97.917 131.139 99.5756 129.111 99.5756C127.085 99.5756 125.441 97.917 125.441 95.871C125.441 93.8248 127.085 92.1663 129.111 92.1663C131.139 92.1663 132.782 93.8248 132.782 95.871Z" fill="#05201F"/>
<path fill-rule="evenodd" clip-rule="evenodd" d="M132.821 103.593C132.821 105.639 131.178 107.297 129.151 107.297C127.124 107.297 125.48 105.639 125.48 103.593C125.48 101.547 127.124 99.8882 129.151 99.8882C131.178 99.8882 132.821 101.547 132.821 103.593Z" fill="#05201F"/>
<path fill-rule="evenodd" clip-rule="evenodd" d="M132.864 111.315C132.864 113.361 131.221 115.02 129.193 115.02C127.167 115.02 125.523 113.361 125.523 111.315C125.523 109.269 127.167 107.61 129.193 107.61C131.221 107.61 132.864 109.269 132.864 111.315Z" fill="#05201F"/>
<path fill-rule="evenodd" clip-rule="evenodd" d="M132.901 119.035C132.901 119.731 132.71 120.381 132.38 120.937C130.01 120.296 127.738 119.583 125.566 118.803C125.685 116.865 127.279 115.331 129.231 115.331C131.258 115.331 132.901 116.989 132.901 119.035Z" fill="#05201F"/>
<path fill-rule="evenodd" clip-rule="evenodd" d="M124.549 64.9896C124.549 67.0354 122.906 68.6938 120.879 68.6938C119.284 68.6938 117.926 67.666 117.422 66.2315C119.41 64.992 121.535 63.8182 123.784 62.7271C124.264 63.353 124.549 64.1373 124.549 64.9896Z" fill="#05201F"/>
<path fill-rule="evenodd" clip-rule="evenodd" d="M124.59 72.7084C124.59 74.7544 122.947 76.413 120.92 76.413C118.893 76.413 117.25 74.7544 117.25 72.7084C117.25 70.6622 118.893 69.0037 120.92 69.0037C122.947 69.0037 124.59 70.6622 124.59 72.7084Z" fill="#05201F"/>
<path fill-rule="evenodd" clip-rule="evenodd" d="M124.625 80.4302C124.625 82.4763 122.982 84.1349 120.955 84.1349C118.928 84.1349 117.285 82.4763 117.285 80.4302C117.285 78.3842 118.928 76.7256 120.955 76.7256C122.982 76.7256 124.625 78.3842 124.625 80.4302Z" fill="#05201F"/>
<path fill-rule="evenodd" clip-rule="evenodd" d="M124.672 88.1525C124.672 90.1985 123.029 91.8572 121.002 91.8572C118.975 91.8572 117.332 90.1985 117.332 88.1525C117.332 86.1065 118.975 84.4478 121.002 84.4478C123.029 84.4478 124.672 86.1065 124.672 88.1525Z" fill="#05201F"/>
<path fill-rule="evenodd" clip-rule="evenodd" d="M124.711 95.871C124.711 97.917 123.068 99.5756 121.041 99.5756C119.014 99.5756 117.371 97.917 117.371 95.871C117.371 93.8248 119.014 92.1663 121.041 92.1663C123.068 92.1663 124.711 93.8248 124.711 95.871Z" fill="#05201F"/>
<path fill-rule="evenodd" clip-rule="evenodd" d="M124.747 103.593C124.747 105.639 123.103 107.297 121.076 107.297C119.049 107.297 117.406 105.639 117.406 103.593C117.406 101.547 119.049 99.8882 121.076 99.8882C123.103 99.8882 124.747 101.547 124.747 103.593Z" fill="#05201F"/>
<path fill-rule="evenodd" clip-rule="evenodd" d="M124.793 111.315C124.793 113.361 123.15 115.02 121.123 115.02C119.096 115.02 117.453 113.361 117.453 111.315C117.453 109.269 119.096 107.61 121.123 107.61C123.15 107.61 124.793 109.269 124.793 111.315Z" fill="#05201F"/>
<path fill-rule="evenodd" clip-rule="evenodd" d="M124.797 118.52C122.751 117.762 120.802 116.944 118.961 116.069C119.574 115.604 120.336 115.329 121.164 115.329C123.017 115.329 124.551 116.717 124.797 118.52Z" fill="#05201F"/>
<path fill-rule="evenodd" clip-rule="evenodd" d="M115.713 72.7104C115.713 74.7562 114.07 76.4146 112.044 76.4146C110.188 76.4146 108.654 75.0241 108.41 73.2194C109.839 71.8191 111.419 70.4674 113.134 69.1719C114.628 69.6417 115.713 71.0496 115.713 72.7104Z" fill="#05201F"/>
<path fill-rule="evenodd" clip-rule="evenodd" d="M115.754 80.4302C115.754 82.4763 114.111 84.1349 112.084 84.1349C110.057 84.1349 108.414 82.4763 108.414 80.4302C108.414 78.3842 110.057 76.7256 112.084 76.7256C114.111 76.7256 115.754 78.3842 115.754 80.4302Z" fill="#05201F"/>
<path fill-rule="evenodd" clip-rule="evenodd" d="M115.797 88.1525C115.797 90.1985 114.154 91.8572 112.127 91.8572C110.1 91.8572 108.457 90.1985 108.457 88.1525C108.457 86.1065 110.1 84.4478 112.127 84.4478C114.154 84.4478 115.797 86.1065 115.797 88.1525Z" fill="#05201F"/>
<path fill-rule="evenodd" clip-rule="evenodd" d="M115.844 95.8712C115.844 97.9172 114.201 99.5758 112.174 99.5758C110.147 99.5758 108.504 97.9172 108.504 95.8712C108.504 93.8251 110.147 92.1665 112.174 92.1665C114.201 92.1665 115.844 93.8251 115.844 95.8712Z" fill="#05201F"/>
<path fill-rule="evenodd" clip-rule="evenodd" d="M115.883 103.593C115.883 105.639 114.24 107.297 112.213 107.297C110.186 107.297 108.543 105.639 108.543 103.593C108.543 101.547 110.186 99.8882 112.213 99.8882C114.24 99.8882 115.883 101.547 115.883 103.593Z" fill="#05201F"/>
<path fill-rule="evenodd" clip-rule="evenodd" d="M115.923 111.315C115.923 112.333 115.518 113.253 114.859 113.923C112.661 112.656 110.663 111.298 108.883 109.846C109.447 108.531 110.743 107.61 112.253 107.61C114.28 107.61 115.923 109.269 115.923 111.315Z" fill="#05201F"/>
<path fill-rule="evenodd" clip-rule="evenodd" d="M107.228 74.4214C106.938 74.9864 106.506 75.4638 105.98 75.8121C106.379 75.3444 106.796 74.8792 107.228 74.4214Z" fill="#05201F"/>
<path fill-rule="evenodd" clip-rule="evenodd" d="M107.687 80.4302C107.687 82.476 106.044 84.1344 104.018 84.1344C102.951 84.1344 101.991 83.6766 101.32 82.9435C102.276 80.871 103.542 78.8448 105.094 76.8867C106.597 77.3519 107.687 78.762 107.687 80.4302Z" fill="#05201F"/>
<path fill-rule="evenodd" clip-rule="evenodd" d="M107.723 88.1525C107.723 90.1985 106.08 91.8572 104.053 91.8572C102.026 91.8572 100.383 90.1985 100.383 88.1525C100.383 86.1065 102.026 84.4478 104.053 84.4478C106.08 84.4478 107.723 86.1065 107.723 88.1525Z" fill="#05201F"/>
<path fill-rule="evenodd" clip-rule="evenodd" d="M107.774 95.871C107.774 97.917 106.131 99.5756 104.104 99.5756C102.077 99.5756 100.434 97.917 100.434 95.871C100.434 93.8248 102.077 92.1663 104.104 92.1663C106.131 92.1663 107.774 93.8248 107.774 95.871Z" fill="#05201F"/>
<path fill-rule="evenodd" clip-rule="evenodd" d="M107.813 103.592C107.813 105.068 106.958 106.342 105.721 106.936C103.96 105.092 102.529 103.13 101.465 101.062C102.133 100.339 103.086 99.8882 104.143 99.8882C106.17 99.8882 107.813 101.547 107.813 103.592Z" fill="#05201F"/>
<path fill-rule="evenodd" clip-rule="evenodd" d="M226.054 76.2323C224.855 75.8376 223.928 74.8392 223.629 73.5898C224.495 74.4519 225.308 75.336 226.054 76.2323Z" fill="#05201F"/>
<path fill-rule="evenodd" clip-rule="evenodd" d="M230.218 82.575C229.554 83.5174 228.464 84.1336 227.228 84.1336C225.202 84.1336 223.559 82.4752 223.559 80.4294C223.559 78.6296 224.828 77.132 226.514 76.7959C228.017 78.6662 229.26 80.5999 230.218 82.575Z" fill="#05201F"/>
<path fill-rule="evenodd" clip-rule="evenodd" d="M230.938 88.1525C230.938 90.1985 229.295 91.8572 227.268 91.8572C225.241 91.8572 223.598 90.1985 223.598 88.1525C223.598 86.1065 225.241 84.4478 227.268 84.4478C229.295 84.4478 230.938 86.1065 230.938 88.1525Z" fill="#05201F"/>
<path fill-rule="evenodd" clip-rule="evenodd" d="M230.985 95.8712C230.985 97.9172 229.342 99.5758 227.315 99.5758C225.288 99.5758 223.645 97.9172 223.645 95.8712C223.645 93.8251 225.288 92.1665 227.315 92.1665C229.342 92.1665 230.985 93.8251 230.985 95.8712Z" fill="#05201F"/>
<path fill-rule="evenodd" clip-rule="evenodd" d="M230.2 101.257C229.129 103.283 227.703 105.207 225.956 107.017C224.622 106.464 223.684 105.139 223.684 103.592C223.684 101.547 225.327 99.8882 227.353 99.8882C228.502 99.8882 229.527 100.422 230.2 101.257Z" fill="#05201F"/>
<path fill-rule="evenodd" clip-rule="evenodd" d="M222.786 72.7733C222.755 74.7897 221.124 76.4141 219.119 76.4141C217.093 76.4141 215.449 74.7555 215.449 72.7099C215.449 70.9199 216.706 69.4269 218.381 69.0811H218.383C219.968 70.2672 221.44 71.4995 222.786 72.7733Z" fill="#05201F"/>
<path fill-rule="evenodd" clip-rule="evenodd" d="M222.832 80.4302C222.832 82.4763 221.189 84.1349 219.162 84.1349C217.135 84.1349 215.492 82.4763 215.492 80.4302C215.492 78.3842 217.135 76.7256 219.162 76.7256C221.189 76.7256 222.832 78.3842 222.832 80.4302Z" fill="#05201F"/>
<path fill-rule="evenodd" clip-rule="evenodd" d="M222.868 88.1525C222.868 90.1985 221.224 91.8572 219.198 91.8572C217.17 91.8572 215.527 90.1985 215.527 88.1525C215.527 86.1065 217.17 84.4478 219.198 84.4478C221.224 84.4478 222.868 86.1065 222.868 88.1525Z" fill="#05201F"/>
<path fill-rule="evenodd" clip-rule="evenodd" d="M222.914 95.8712C222.914 97.9172 221.271 99.5758 219.244 99.5758C217.217 99.5758 215.574 97.9172 215.574 95.8712C215.574 93.8251 217.217 92.1665 219.244 92.1665C221.271 92.1665 222.914 93.8251 222.914 95.8712Z" fill="#05201F"/>
<path fill-rule="evenodd" clip-rule="evenodd" d="M222.95 103.593C222.95 105.639 221.307 107.297 219.279 107.297C217.252 107.297 215.609 105.639 215.609 103.593C215.609 101.547 217.252 99.8882 219.279 99.8882C221.307 99.8882 222.95 101.547 222.95 103.593Z" fill="#05201F"/>
<path fill-rule="evenodd" clip-rule="evenodd" d="M222.736 109.951C220.958 111.383 218.962 112.727 216.772 113.976C216.082 113.304 215.652 112.359 215.652 111.314C215.652 109.269 217.295 107.61 219.322 107.61C220.873 107.61 222.198 108.58 222.736 109.951Z" fill="#05201F"/>
<path fill-rule="evenodd" clip-rule="evenodd" d="M214.196 66.2292C213.689 67.6661 212.331 68.6939 210.736 68.6939C208.71 68.6939 207.066 67.0353 207.066 64.9897C207.066 64.1398 207.349 63.3579 207.826 62.7319C210.075 63.8231 212.203 64.9921 214.196 66.2292Z" fill="#05201F"/>
<path fill-rule="evenodd" clip-rule="evenodd" d="M214.45 72.7084C214.45 74.7544 212.807 76.413 210.779 76.413C208.752 76.413 207.109 74.7544 207.109 72.7084C207.109 70.6622 208.752 69.0037 210.779 69.0037C212.807 69.0037 214.45 70.6622 214.45 72.7084Z" fill="#05201F"/>
<path fill-rule="evenodd" clip-rule="evenodd" d="M214.489 80.4302C214.489 82.4763 212.846 84.1349 210.818 84.1349C208.792 84.1349 207.148 82.4763 207.148 80.4302C207.148 78.3842 208.792 76.7256 210.818 76.7256C212.846 76.7256 214.489 78.3842 214.489 80.4302Z" fill="#05201F"/>
<path fill-rule="evenodd" clip-rule="evenodd" d="M214.532 88.1525C214.532 90.1985 212.889 91.8572 210.862 91.8572C208.835 91.8572 207.191 90.1985 207.191 88.1525C207.191 86.1065 208.835 84.4478 210.862 84.4478C212.889 84.4478 214.532 86.1065 214.532 88.1525Z" fill="#05201F"/>
<path fill-rule="evenodd" clip-rule="evenodd" d="M214.571 95.8712C214.571 97.9172 212.928 99.5758 210.901 99.5758C208.874 99.5758 207.23 97.9172 207.23 95.8712C207.23 93.8251 208.874 92.1665 210.901 92.1665C212.928 92.1665 214.571 93.8251 214.571 95.8712Z" fill="#05201F"/>
<path fill-rule="evenodd" clip-rule="evenodd" d="M214.606 103.593C214.606 105.639 212.963 107.297 210.936 107.297C208.909 107.297 207.266 105.639 207.266 103.593C207.266 101.547 208.909 99.8882 210.936 99.8882C212.963 99.8882 214.606 101.547 214.606 103.593Z" fill="#05201F"/>
<path fill-rule="evenodd" clip-rule="evenodd" d="M214.649 111.315C214.649 113.361 213.006 115.02 210.979 115.02C208.952 115.02 207.309 113.361 207.309 111.315C207.309 109.269 208.952 107.61 210.979 107.61C213.006 107.61 214.649 109.269 214.649 111.315Z" fill="#05201F"/>
<path fill-rule="evenodd" clip-rule="evenodd" d="M213.029 115.933C211.256 116.785 209.383 117.582 207.422 118.322C207.748 116.615 209.236 115.329 211.022 115.329C211.762 115.329 212.452 115.55 213.029 115.933Z" fill="#05201F"/>
<path fill-rule="evenodd" clip-rule="evenodd" d="M203.61 60.8386C203.299 60.9288 202.968 60.975 202.628 60.975C201.335 60.975 200.198 60.3004 199.547 59.2776C200.934 59.772 202.29 60.2932 203.61 60.8386Z" fill="#05201F"/>
<path fill-rule="evenodd" clip-rule="evenodd" d="M206.332 64.9882C206.332 67.0342 204.689 68.6929 202.662 68.6929C200.635 68.6929 198.992 67.0342 198.992 64.9882C198.992 62.9422 200.635 61.2834 202.662 61.2834C204.689 61.2834 206.332 62.9422 206.332 64.9882Z" fill="#05201F"/>
<path fill-rule="evenodd" clip-rule="evenodd" d="M206.379 72.7084C206.379 74.7544 204.736 76.413 202.709 76.413C200.682 76.413 199.039 74.7544 199.039 72.7084C199.039 70.6622 200.682 69.0037 202.709 69.0037C204.736 69.0037 206.379 70.6622 206.379 72.7084Z" fill="#05201F"/>
<path fill-rule="evenodd" clip-rule="evenodd" d="M206.418 80.4302C206.418 82.4763 204.775 84.1349 202.748 84.1349C200.721 84.1349 199.078 82.4763 199.078 80.4302C199.078 78.3842 200.721 76.7256 202.748 76.7256C204.775 76.7256 206.418 78.3842 206.418 80.4302Z" fill="#05201F"/>
<path fill-rule="evenodd" clip-rule="evenodd" d="M206.457 88.1525C206.457 90.1985 204.814 91.8572 202.787 91.8572C200.76 91.8572 199.117 90.1985 199.117 88.1525C199.117 86.1065 200.76 84.4478 202.787 84.4478C204.814 84.4478 206.457 86.1065 206.457 88.1525Z" fill="#05201F"/>
<path fill-rule="evenodd" clip-rule="evenodd" d="M206.5 95.871C206.5 97.917 204.857 99.5756 202.83 99.5756C200.803 99.5756 199.16 97.917 199.16 95.871C199.16 93.8248 200.803 92.1663 202.83 92.1663C204.857 92.1663 206.5 93.8248 206.5 95.871Z" fill="#05201F"/>
<path fill-rule="evenodd" clip-rule="evenodd" d="M206.539 103.593C206.539 105.639 204.896 107.297 202.869 107.297C200.842 107.297 199.199 105.639 199.199 103.593C199.199 101.547 200.842 99.8882 202.869 99.8882C204.896 99.8882 206.539 101.547 206.539 103.593Z" fill="#05201F"/>
<path fill-rule="evenodd" clip-rule="evenodd" d="M206.582 111.315C206.582 113.361 204.939 115.02 202.912 115.02C200.885 115.02 199.242 113.361 199.242 111.315C199.242 109.269 200.885 107.61 202.912 107.61C204.939 107.61 206.582 109.269 206.582 111.315Z" fill="#05201F"/>
<path fill-rule="evenodd" clip-rule="evenodd" d="M206.599 118.626C204.413 119.425 202.121 120.153 199.732 120.813C199.445 120.285 199.281 119.678 199.281 119.033C199.281 116.987 200.924 115.329 202.951 115.329C204.842 115.329 206.401 116.771 206.599 118.626Z" fill="#05201F"/>
<path fill-rule="evenodd" clip-rule="evenodd" d="M197.934 58.7239C197.375 60.0464 196.074 60.9742 194.559 60.9742C192.53 60.9742 190.887 59.3157 190.887 57.2676C190.887 57.0703 190.901 56.8778 190.933 56.6904C193.341 57.2894 195.676 57.969 197.934 58.7239Z" fill="#05201F"/>
<path fill-rule="evenodd" clip-rule="evenodd" d="M198.266 64.9882C198.266 67.0342 196.623 68.6929 194.596 68.6929C192.569 68.6929 190.926 67.0342 190.926 64.9882C190.926 62.9422 192.569 61.2834 194.596 61.2834C196.623 61.2834 198.266 62.9422 198.266 64.9882Z" fill="#05201F"/>
<path fill-rule="evenodd" clip-rule="evenodd" d="M198.309 72.7084C198.309 74.7544 196.666 76.413 194.639 76.413C192.612 76.413 190.969 74.7544 190.969 72.7084C190.969 70.6622 192.612 69.0037 194.639 69.0037C196.666 69.0037 198.309 70.6622 198.309 72.7084Z" fill="#05201F"/>
<path fill-rule="evenodd" clip-rule="evenodd" d="M198.348 80.4302C198.348 82.4763 196.705 84.1349 194.678 84.1349C192.651 84.1349 191.008 82.4763 191.008 80.4302C191.008 78.3842 192.651 76.7256 194.678 76.7256C196.705 76.7256 198.348 78.3842 198.348 80.4302Z" fill="#05201F"/>
<path fill-rule="evenodd" clip-rule="evenodd" d="M198.387 88.1525C198.387 90.1985 196.744 91.8572 194.717 91.8572C192.69 91.8572 191.047 90.1985 191.047 88.1525C191.047 86.1065 192.69 84.4478 194.717 84.4478C196.744 84.4478 198.387 86.1065 198.387 88.1525Z" fill="#05201F"/>
<path fill-rule="evenodd" clip-rule="evenodd" d="M198.43 95.871C198.43 97.917 196.787 99.5756 194.76 99.5756C192.733 99.5756 191.09 97.917 191.09 95.871C191.09 93.8248 192.733 92.1663 194.76 92.1663C196.787 92.1663 198.43 93.8248 198.43 95.871Z" fill="#05201F"/>
<path fill-rule="evenodd" clip-rule="evenodd" d="M198.469 103.593C198.469 105.639 196.826 107.297 194.799 107.297C192.772 107.297 191.129 105.639 191.129 103.593C191.129 101.547 192.772 99.8882 194.799 99.8882C196.826 99.8882 198.469 101.547 198.469 103.593Z" fill="#05201F"/>
<path fill-rule="evenodd" clip-rule="evenodd" d="M198.508 111.315C198.508 113.361 196.865 115.02 194.838 115.02C192.811 115.02 191.168 113.361 191.168 111.315C191.168 109.269 192.811 107.61 194.838 107.61C196.865 107.61 198.508 109.269 198.508 111.315Z" fill="#05201F"/>
<path fill-rule="evenodd" clip-rule="evenodd" d="M198.55 119.035C198.55 119.904 198.254 120.706 197.754 121.336C196.294 121.706 194.801 122.05 193.276 122.366C192.053 121.765 191.211 120.498 191.211 119.035C191.211 116.989 192.854 115.331 194.881 115.331C196.907 115.331 198.55 116.989 198.55 119.035Z" fill="#05201F"/>
<path fill-rule="evenodd" clip-rule="evenodd" d="M190.156 57.2656C190.156 59.3138 188.513 60.9722 186.486 60.9722C184.459 60.9722 182.816 59.3138 182.816 57.2656C182.816 56.4741 183.062 55.7385 183.482 55.137C185.728 55.517 187.926 55.965 190.071 56.4789C190.127 56.7323 190.156 56.9953 190.156 57.2656Z" fill="#05201F"/>
<path fill-rule="evenodd" clip-rule="evenodd" d="M190.196 64.9882C190.196 67.0342 188.553 68.6929 186.526 68.6929C184.499 68.6929 182.855 67.0342 182.855 64.9882C182.855 62.9422 184.499 61.2834 186.526 61.2834C188.553 61.2834 190.196 62.9422 190.196 64.9882Z" fill="#05201F"/>
<path fill-rule="evenodd" clip-rule="evenodd" d="M190.239 72.7084C190.239 74.7544 188.596 76.413 186.569 76.413C184.542 76.413 182.898 74.7544 182.898 72.7084C182.898 70.6622 184.542 69.0037 186.569 69.0037C188.596 69.0037 190.239 70.6622 190.239 72.7084Z" fill="#05201F"/>
<path fill-rule="evenodd" clip-rule="evenodd" d="M190.28 80.4302C190.28 82.4763 188.637 84.1349 186.61 84.1349C184.583 84.1349 182.939 82.4763 182.939 80.4302C182.939 78.3842 184.583 76.7256 186.61 76.7256C188.637 76.7256 190.28 78.3842 190.28 80.4302Z" fill="#05201F"/>
<path fill-rule="evenodd" clip-rule="evenodd" d="M190.317 88.1525C190.317 90.1985 188.674 91.8572 186.647 91.8572C184.62 91.8572 182.977 90.1985 182.977 88.1525C182.977 86.1065 184.62 84.4478 186.647 84.4478C188.674 84.4478 190.317 86.1065 190.317 88.1525Z" fill="#05201F"/>
<path fill-rule="evenodd" clip-rule="evenodd" d="M190.36 95.8712C190.36 97.9172 188.717 99.5758 186.69 99.5758C184.663 99.5758 183.02 97.9172 183.02 95.8712C183.02 93.8251 184.663 92.1665 186.69 92.1665C188.717 92.1665 190.36 93.8251 190.36 95.8712Z" fill="#05201F"/>
<path fill-rule="evenodd" clip-rule="evenodd" d="M190.399 103.593C190.399 105.639 188.756 107.297 186.729 107.297C184.702 107.297 183.059 105.639 183.059 103.593C183.059 101.547 184.702 99.8882 186.729 99.8882C188.756 99.8882 190.399 101.547 190.399 103.593Z" fill="#05201F"/>
<path fill-rule="evenodd" clip-rule="evenodd" d="M190.442 111.315C190.442 113.361 188.799 115.02 186.772 115.02C184.745 115.02 183.102 113.361 183.102 111.315C183.102 109.269 184.745 107.61 186.772 107.61C188.799 107.61 190.442 109.269 190.442 111.315Z" fill="#05201F"/>
<path fill-rule="evenodd" clip-rule="evenodd" d="M190.481 119.034C190.481 121.08 188.838 122.739 186.811 122.739C184.784 122.739 183.141 121.08 183.141 119.034C183.141 116.988 184.784 115.329 186.811 115.329C188.838 115.329 190.481 116.988 190.481 119.034Z" fill="#05201F"/>
<path fill-rule="evenodd" clip-rule="evenodd" d="M181.281 57.2678C181.281 59.316 179.638 60.9744 177.611 60.9744C175.584 60.9744 173.941 59.316 173.941 57.2678C173.941 55.9405 174.634 54.7765 175.674 54.1238C177.199 54.2625 178.704 54.4355 180.193 54.64H180.195C180.866 55.3097 181.281 56.2402 181.281 57.2678Z" fill="#05201F"/>
<path fill-rule="evenodd" clip-rule="evenodd" d="M181.325 64.9879C181.325 67.0339 179.682 68.6927 177.654 68.6927C175.627 68.6927 173.984 67.0339 173.984 64.9879C173.984 62.9419 175.627 61.2832 177.654 61.2832C179.682 61.2832 181.325 62.9419 181.325 64.9879Z" fill="#05201F"/>
<path fill-rule="evenodd" clip-rule="evenodd" d="M181.362 72.7084C181.362 74.7544 179.719 76.413 177.692 76.413C175.665 76.413 174.021 74.7544 174.021 72.7084C174.021 70.6622 175.665 69.0037 177.692 69.0037C179.719 69.0037 181.362 70.6622 181.362 72.7084Z" fill="#05201F"/>
<path fill-rule="evenodd" clip-rule="evenodd" d="M181.407 80.4302C181.407 82.4763 179.764 84.1349 177.737 84.1349C175.71 84.1349 174.066 82.4763 174.066 80.4302C174.066 78.3842 175.71 76.7256 177.737 76.7256C179.764 76.7256 181.407 78.3842 181.407 80.4302Z" fill="#05201F"/>
<path fill-rule="evenodd" clip-rule="evenodd" d="M181.446 88.1525C181.446 90.1985 179.803 91.8572 177.776 91.8572C175.749 91.8572 174.105 90.1985 174.105 88.1525C174.105 86.1065 175.749 84.4478 177.776 84.4478C179.803 84.4478 181.446 86.1065 181.446 88.1525Z" fill="#05201F"/>
<path fill-rule="evenodd" clip-rule="evenodd" d="M181.489 95.871C181.489 97.917 179.846 99.5756 177.819 99.5756C175.792 99.5756 174.148 97.917 174.148 95.871C174.148 93.8248 175.792 92.1663 177.819 92.1663C179.846 92.1663 181.489 93.8248 181.489 95.871Z" fill="#05201F"/>
<path fill-rule="evenodd" clip-rule="evenodd" d="M181.532 103.593C181.532 105.639 179.889 107.297 177.862 107.297C175.835 107.297 174.191 105.639 174.191 103.593C174.191 101.547 175.835 99.8882 177.862 99.8882C179.889 99.8882 181.532 101.547 181.532 103.593Z" fill="#05201F"/>
<path fill-rule="evenodd" clip-rule="evenodd" d="M181.575 111.315C181.575 113.361 179.932 115.02 177.904 115.02C175.877 115.02 174.234 113.361 174.234 111.315C174.234 109.269 175.877 107.61 177.904 107.61C179.932 107.61 181.575 109.269 181.575 111.315Z" fill="#05201F"/>
<path fill-rule="evenodd" clip-rule="evenodd" d="M181.614 119.034C181.614 121.08 179.971 122.738 177.943 122.738C175.917 122.738 174.273 121.08 174.273 119.034C174.273 116.988 175.917 115.329 177.943 115.329C179.971 115.329 181.614 116.988 181.614 119.034Z" fill="#05201F"/>
<path fill-rule="evenodd" clip-rule="evenodd" d="M173.213 57.2669C173.213 59.3151 171.57 60.9735 169.543 60.9735C167.514 60.9735 165.871 59.3151 165.871 57.2669C165.871 55.5719 166.998 54.1447 168.537 53.7039C169.295 53.721 170.047 53.7478 170.798 53.7844C172.207 54.303 173.213 55.6669 173.213 57.2669Z" fill="#05201F"/>
<path fill-rule="evenodd" clip-rule="evenodd" d="M173.258 64.9882C173.258 67.0342 171.615 68.6929 169.588 68.6929C167.561 68.6929 165.918 67.0342 165.918 64.9882C165.918 62.9422 167.561 61.2834 169.588 61.2834C171.615 61.2834 173.258 62.9422 173.258 64.9882Z" fill="#05201F"/>
<path fill-rule="evenodd" clip-rule="evenodd" d="M173.293 72.7084C173.293 74.7544 171.65 76.413 169.623 76.413C167.596 76.413 165.953 74.7544 165.953 72.7084C165.953 70.6622 167.596 69.0037 169.623 69.0037C171.65 69.0037 173.293 70.6622 173.293 72.7084Z" fill="#05201F"/>
<path fill-rule="evenodd" clip-rule="evenodd" d="M173.336 80.4302C173.336 82.4763 171.693 84.1349 169.666 84.1349C167.639 84.1349 165.996 82.4763 165.996 80.4302C165.996 78.3842 167.639 76.7256 169.666 76.7256C171.693 76.7256 173.336 78.3842 173.336 80.4302Z" fill="#05201F"/>
<path fill-rule="evenodd" clip-rule="evenodd" d="M173.379 88.1525C173.379 90.1985 171.736 91.8572 169.709 91.8572C167.682 91.8572 166.039 90.1985 166.039 88.1525C166.039 86.1065 167.682 84.4478 169.709 84.4478C171.736 84.4478 173.379 86.1065 173.379 88.1525Z" fill="#05201F"/>
<path fill-rule="evenodd" clip-rule="evenodd" d="M173.414 95.871C173.414 97.917 171.771 99.5756 169.744 99.5756C167.717 99.5756 166.074 97.917 166.074 95.871C166.074 93.8248 167.717 92.1663 169.744 92.1663C171.771 92.1663 173.414 93.8248 173.414 95.871Z" fill="#05201F"/>
<path fill-rule="evenodd" clip-rule="evenodd" d="M173.465 103.593C173.465 105.639 171.822 107.297 169.795 107.297C167.768 107.297 166.125 105.639 166.125 103.593C166.125 101.547 167.768 99.8882 169.795 99.8882C171.822 99.8882 173.465 101.547 173.465 103.593Z" fill="#05201F"/>
<path fill-rule="evenodd" clip-rule="evenodd" d="M173.5 111.315C173.5 113.361 171.857 115.02 169.83 115.02C167.803 115.02 166.16 113.361 166.16 111.315C166.16 109.269 167.803 107.61 169.83 107.61C171.857 107.61 173.5 109.269 173.5 111.315Z" fill="#05201F"/>
<path fill-rule="evenodd" clip-rule="evenodd" d="M173.547 119.034C173.547 121.08 171.904 122.738 169.877 122.738C167.85 122.738 166.207 121.08 166.207 119.034C166.207 116.988 167.85 115.329 169.877 115.329C171.904 115.329 173.547 116.988 173.547 119.034Z" fill="#05201F"/>
<path fill-rule="evenodd" clip-rule="evenodd" d="M116.075 95.6359C116.075 95.6359 116.145 84.472 126.823 82.2533C137.102 80.1173 143.077 87.8123 143.756 95.442C143.806 96.0051 143.703 96.5716 143.473 97.0882L143.204 97.6916C142.559 99.1385 140.628 99.423 139.594 98.2237C139.096 97.647 138.808 96.9209 138.776 96.1601C138.666 93.5253 137.559 87.0858 129.371 87.003C128.015 86.9892 126.513 87.5467 125.359 88.2037C122.401 89.8874 120.388 94.2473 121.492 97.5601C122.064 99.2762 119.386 101.46 116.032 99.5362C112.678 97.612 111.092 94.5698 111.534 94.6218C111.976 94.6737 116.075 95.6359 116.075 95.6359Z" fill="#FFB000"/>
<path fill-rule="evenodd" clip-rule="evenodd" d="M211.287 95.6359C211.287 95.6359 211.218 84.472 200.539 82.2533C190.26 80.1173 184.286 87.8123 183.606 95.442C183.556 96.0051 183.659 96.5716 183.889 97.0882L184.158 97.6916C184.803 99.1385 186.734 99.423 187.769 98.2237C188.266 97.647 188.554 96.9209 188.586 96.1601C188.696 93.5253 189.803 87.0858 197.991 87.003C199.347 86.9892 200.849 87.5467 202.003 88.2037C204.961 89.8874 206.974 94.2473 205.87 97.5601C205.298 99.2762 207.976 101.46 211.33 99.5362C214.685 97.612 216.271 94.5698 215.829 94.6218C215.387 94.6737 211.287 95.6359 211.287 95.6359Z" fill="#FFB000"/>
</svg>
