<svg width="118" height="48" viewBox="0 0 118 48" fill="none" xmlns="http://www.w3.org/2000/svg">
<path fill-rule="evenodd" clip-rule="evenodd" d="M13.2629 28.874C9.60613 28.874 6.60463 26.2013 6.60463 22.052C6.60463 18.0134 9.60613 15.3937 13.2629 15.3937C16.9202 15.3937 19.9211 18.0134 19.9211 22.052C19.9211 26.2013 16.9202 28.874 13.2629 28.874ZM13.2629 8.8421C6.00421 8.8421 0 14.0285 0 22.052C0 30.0754 6.00421 35.3684 13.2629 35.3684C20.4661 35.3684 26.5263 30.0754 26.5263 22.052C26.5263 14.0285 20.4661 8.8421 13.2629 8.8421Z" fill="#02CFCA"/>
<path fill-rule="evenodd" clip-rule="evenodd" d="M8.20991 5.05263C9.5975 5.05263 10.7362 4.05069 10.7362 2.49558C10.7362 0.981651 9.5975 0 8.20991 0C6.82231 0 5.68359 0.981651 5.68359 2.49558C5.68359 4.05069 6.82231 5.05263 8.20991 5.05263Z" fill="#02CFCA"/>
<path fill-rule="evenodd" clip-rule="evenodd" d="M18.9482 5.05263C20.3358 5.05263 21.4745 4.05069 21.4745 2.49558C21.4745 0.981651 20.3358 0 18.9482 0C17.5606 0 16.4219 0.981651 16.4219 2.49558C16.4219 4.05069 17.5606 5.05263 18.9482 5.05263Z" fill="#02CFCA"/>
<path fill-rule="evenodd" clip-rule="evenodd" d="M49.6053 22.052C49.6053 18.0134 46.6044 15.3937 42.9471 15.3937C39.2897 15.3937 36.2888 18.0134 36.2888 22.052C36.2888 26.2013 39.2897 28.874 42.9471 28.874C46.6044 28.874 49.6053 26.2013 49.6053 22.052ZM29.6836 22.052C29.6836 14.0285 35.6884 8.8421 42.9471 8.8421C50.1503 8.8421 56.2099 14.0285 56.2099 22.052C56.2099 30.0754 50.1503 35.3684 42.9471 35.3684C35.6884 35.3684 29.6836 30.0754 29.6836 22.052Z" fill="#95BF00"/>
<path fill-rule="evenodd" clip-rule="evenodd" d="M73.687 15.2968C70.0095 15.2968 66.8698 18.1101 66.8698 22.2444C66.8698 26.5443 70.0095 29.304 73.687 29.304C77.0965 29.304 80.5585 26.6028 80.5585 22.2444C80.5585 17.7784 77.3114 15.2968 73.687 15.2968ZM73.0388 41.8775C79.4202 41.8775 81.0987 37.0257 80.7191 31.6195C79.4202 34.2131 75.9588 35.7003 72.6585 35.7003C66.0598 35.7003 60 30.4639 60 22.3564C60 14.0828 66.0598 8.8421 72.6585 8.8421C75.9588 8.8421 79.3134 10.2758 80.7191 12.8694V9.39343H87.1579V31.454C87.1579 42.9254 81.8019 48 73.0388 48C67.7902 48 63.1922 45.076 60.9735 40.3897C62.4342 39.6734 64.8689 38.3474 66.3296 37.6306C67.4123 40.1706 70.3873 41.8775 73.0388 41.8775Z" fill="#FFB000"/>
<mask id="mask0" style="mask-type:alpha" maskUnits="userSpaceOnUse" x="90" y="8" width="27" height="28">
<path d="M90.2617 8.60403H116.871V35.1868H90.2617V8.60403Z" fill="white"/>
</mask>
<g mask="url(#mask0)">
<path fill-rule="evenodd" clip-rule="evenodd" d="M110.245 21.842C110.245 17.7949 107.235 15.1696 103.566 15.1696C99.898 15.1696 96.8877 17.7949 96.8877 21.842C96.8877 26.0002 99.898 28.6785 103.566 28.6785C107.235 28.6785 110.245 26.0002 110.245 21.842ZM90.2617 21.842C90.2617 13.8014 96.2848 8.60403 103.566 8.60403C110.793 8.60403 116.871 13.8014 116.871 21.842C116.871 29.8825 110.793 35.1868 103.566 35.1868C96.2848 35.1868 90.2617 29.8825 90.2617 21.842Z" fill="#FF685B"/>
</g>
</svg>
